<svg xmlns="http://www.w3.org/2000/svg" width="256" height="256">
  <path style="fill:#2d8eff;fill-opacity:1;stroke:none" d="M0 0h256v256H0z"/>
  <path style="stroke:none;fill-rule:nonzero;fill:#fff;fill-opacity:1" d="M110.793 84.41H88.305v35.848h23.465c2.933 0 5.535-1.633 7.5-3.91 2.273-2.282 3.906-6.516 3.906-13.684 0-7.168-1.633-11.762-4.239-14.344a12.127 12.127 0 0 0-8.144-3.91Zm0 0"/>
  <path style="stroke:none;fill-rule:nonzero;fill:#fff;fill-opacity:1" d="M216.113 24.121H39.68c-8.598 0-15.567 6.969-15.567 15.567V216.12c-.004 8.598 6.965 15.574 15.567 15.574h176.433c8.602 0 15.575-6.972 15.575-15.574V39.687c0-8.601-6.977-15.57-15.575-15.566ZM88.305 212.133H44.023V43.664h69.38a46.831 46.831 0 0 1 21.827 5.219 57.195 57.195 0 0 1 17.297 13.36 64.832 64.832 0 0 1 11.383 18.57 53.438 53.438 0 0 1 4.219 21.18 61.654 61.654 0 0 1-3.895 21.855 60.43 60.43 0 0 1-10.754 18.898 54.992 54.992 0 0 1-16.94 13.035 50.927 50.927 0 0 1-21.837 4.89H88.305Zm123.851.328H108.184v-31.934h103.949Zm0 0"/>
</svg>
