<?xml version="1.0" standalone="yes"?>
<svg xmlns="http://www.w3.org/2000/svg" width="256" height="256">
<path style="fill:#010101; stroke:none;" d="M0 0L0 9L1 9L9 1L0 0z"/>
<path style="fill:#2e8fff; stroke:none;" d="M9.00386 0.652771C2.01792 2.8703 0.0354279 9.42714 0.000771605 16C-0.0712832 29.6658 0 43.334 0 57L0 197L0 233C0 238.483 -1.03923 245.1 2.14815 249.907C6.41051 256.334 13.1522 256 20 256L60 256L190 256L228 256C233.874 256 241.379 257.221 246.996 255.297C254.444 252.747 255.988 245.961 256 239L256 200L256 58L256 22C256 16.4741 257 9.83241 253.347 5.18518C248.723 -0.69928 241.685 0 235 0L195 0L67 0C49.8616 0 25.3217 -4.52698 9.00386 0.652771z"/>
<path style="fill:#010101; stroke:none;" d="M247 0L247 1L255 9L256 9L256 0L247 0z"/>
<path style="fill:#01ffff; stroke:none;" d="M250 2L251 3L250 2M2 5L3 6L2 5z"/>
<path style="fill:#a0cbff; stroke:none;" d="M91 159L122 159L122 158C115.177 158 97.0027 154.751 91.6034 159.028C88.6492 161.368 90 168.684 90 172L90 207L49 207L49 49L120 49L102 48L66 48L49.0278 49.6034L48 74L48 142L48 189L49.0278 206.397L68 208L89.3966 206.972L91 194L91 159z"/>
<path style="fill:#feffff; stroke:none;" d="M49 49L49 207L90 207L90 172C90 168.497 88.8695 162.337 91.6034 159.603C96.4981 154.709 114.373 158.261 121 157.961C134.805 157.334 148.087 148.185 155.64 137C174.738 108.72 164.965 63.9512 131 51.6991C120.695 47.9818 109.776 49 99 49L49 49z"/>
<path style="fill:#a0cbff; stroke:none;" d="M123 49L123 50L126 50L123 49M127.667 50.3333L128.333 50.6667L127.667 50.3333M130 51L131 52L130 51M133 52L134 53L133 52M135 53L136 54L135 53M138 55L139 56L138 55M140 56L141 57L140 56M141 57L142 58L141 57M144 59L145 60L144 59M145 60L146 61L145 60M146 61L147 62L146 61M147 62L148 63L147 62M148 63L149 64L148 63M149 64L150 65L149 64M150 65L151 66L150 65M151 66L152 67L151 66M152 67L153 68L152 67M154 70L155 71L154 70M155 71L156 72L155 71M157 74L158 75L157 74M158 76L159 77L158 76M159 78L160 79L159 78M160 80L161 81L160 80M161 82L162 83L161 82M162.333 84.6667L162.667 85.3333L162.333 84.6667M90 121L115 121L115 120L91 120L91 87L112 87L104 86L91.6034 87.0278L90 96L90 121z"/>
<path style="fill:#2e8fff; stroke:none;" d="M91 87L91 120C98.2944 120 110.4 122.312 116.956 118.821C126.132 113.935 125.226 94.0998 116.956 88.858C110.443 84.7303 98.4345 87 91 87z"/>
<path style="fill:#a0cbff; stroke:none;" d="M114.667 87.3333L115.333 87.6667L114.667 87.3333M163 87L164 88L163 87M118 89L119 90L118 89M119 90L120 91L119 90M164.333 90.6667L164.667 91.3333L164.333 90.6667M120 91L121 92L120 91M121 93L122 94L121 93M122.333 95.6667L122.667 96.3333L122.333 95.6667M165 95L165 100L166 100L165 95M123 100L123 107L124 107L123 100M165 107L165 112L166 112L165 107M122 111L123 112L122 111M121 114L122 115L121 114M164.333 115.667L164.667 116.333L164.333 115.667M116 119L117 120L116 119M163.333 119.667L163.667 120.333L163.333 119.667M162.333 122.667L162.667 123.333L162.333 122.667M161 125L162 126L161 125M160 128L161 129L160 128M159 130L160 131L159 130M158 132L159 133L158 132M156 135L157 136L156 135M154 138L155 139L154 138M151 142L152 143L151 142M150 143L151 144L150 143M149 144L150 145L149 144M148 145L149 146L148 145M147 146L148 147L147 146M144 148L145 149L144 148M143 149L144 150L143 149M140 151L141 152L140 151M138 152L139 153L138 152M137 153L138 154L137 153M134.667 154.333L135.333 154.667L134.667 154.333M132 155L133 156L132 155M129 156L130 157L129 156M125.667 157.333L126.333 157.667L125.667 157.333M109 177C109 182.842 105.856 203.212 110.603 206.972C114.725 210.237 126.912 208 132 208L186 208C190.897 208 202.418 210.124 206.397 206.972C209.867 204.223 209.709 179.585 205.682 177.603C199.262 174.444 186.118 177 179 177L152 177L109 177z"/>
<path style="fill:#feffff; stroke:none;" d="M110 178L110 207L207 207L207 178L110 178z"/>
<path style="fill:#010101; stroke:none;" d="M0 247L0 256L9 256L9 255L0 247M255 247L247 255L247 256L256 256L255 247z"/>
<path style="fill:#01ffff; stroke:none;" d="M2 250L3 251L2 250M253 250L254 251L253 250M5 253L6 254L5 253M250 253L251 254L250 253z"/>
</svg>