<?xml version="1.0" standalone="yes"?>
<svg xmlns="http://www.w3.org/2000/svg" width="256" height="256">
  <path
     class="cls-1"
     d="m 90.716834,155.41827 h 24.750936 a 47.781763,45.84475 0 0 0 20.47184,-4.3983 51.552447,49.462576 0 0 0 15.88772,-11.72337 56.77209,54.47062 0 0 0 10.06644,-17.00785 57.695695,55.356784 0 0 0 3.669,-19.64194 A 49.993333,47.966666 0 0 0 161.58873,83.598362 60.712242,58.251044 0 0 0 150.8783,66.883195 53.764016,51.584491 0 0 0 134.68555,54.867137 43.875504,42.096847 0 0 0 114.2137,50.17616 H 49.19695 v 151.53401 h 41.519884 z m 0,-68.60046 h 21.081936 a 11.362891,10.902254 0 0 1 7.6261,3.520271 c 2.44883,2.341422 3.97404,6.447052 3.97404,12.894079 0,6.44705 -1.52521,10.26812 -3.669,12.31687 -1.83026,2.04875 -4.23672,3.52027 -7.02448,3.52027 H 90.716834 Z"
     id="path8"
     style="fill:#2d8eff;stroke-width:0.829992" />
  <path
     class="cls-1"
     d="M 0.8983068,18.160443 V 234.04296 A 14.591275,13.999763 0 0 0 15.498055,248.05085 H 240.50195 A 14.591275,13.999763 0 0 0 255.1017,234.04296 V 18.160443 A 14.591275,13.999763 0 0 0 240.50195,4.1525445 H 15.498055 A 14.591275,13.999763 0 0 0 0.8983068,18.160443 Z M 210.5568,219.31963 H 45.138169 A 14.591275,13.999763 0 0 1 30.555368,205.31174 V 46.598985 A 14.591275,13.999763 0 0 1 45.138169,32.607353 H 210.5568 a 14.591275,13.999763 0 0 1 14.59974,14.007891 V 205.31174 a 14.591275,13.999763 0 0 1 -14.59974,14.00789 z"
     id="path10"
     style="fill:#ffffff;stroke-width:0.829992" />
  <rect
     class="cls-1"
     x="109.35841"
     y="173.29601"
     width="97.461571"
     height="28.73122"
     id="rect12"
     style="fill:#2d8eff;stroke-width:0.829992" />
</svg>