/* XPM */
static char *product_logo_321671712997[] = {
/* columns rows colors chars-per-pixel */
"32 32 18 1 ",
"  c None",
". c #2D8DFF",
"X c #2D8EFF",
"o c #2D8FFF",
"O c #2E8EFF",
"+ c #2E8FFF",
"@ c #2D90FF",
"# c #2C91FF",
"$ c #2D91FF",
"% c #2E90FF",
"& c #2E91FF",
"* c #2D92FF",
"= c #2E92FF",
"- c #2F92FF",
"; c #2E93FF",
": c #2E94FF",
"> c #2F94FF",
", c #2F95FF",
/* pixels */
"                                ",
"                                ",
"                                ",
"                                ",
"                                ",
"      :******************>      ",
"     :*OO**O*O*O*O*O*O*OO**     ",
"     *OOO*O*O*O*O*O*O*O>.>*     ",
"     **O                OO*     ",
"     *O*  *OOOO*        OO*     ",
"     **O **OO*O**       O**     ",
"     *O* O*OOOOOO>      OO*     ",
"     **O *OO**>*OO*     O>*     ",
"     *O* O*OO  >OO*     OO*     ",
"     **O O*O*  >OO*     OO*     ",
"     *O* *OOO***OO*     OO*     ",
"     **O *OOOOOOO*      OO*     ",
"     *O* O*OOO***:      O**     ",
"     **O **O**:>        OO*     ",
"     *O* O*OO           OO*     ",
"     **O O*OO  **O*O**  O>*     ",
"     *O* **O> >**OOOO** OO*     ",
"     **O  *O   *OOO*O*  OO*     ",
"     *O*                OO*     ",
"     *OOOOOOOOOOOOOO..OOOO*     ",
"     :*O*OO*OO*OOOOOO>O*O**     ",
"      :******************:      ",
"                                ",
"                                ",
"                                ",
"                                ",
"                                "
};
